<svg width="100" height="101" viewBox="0 0 100 101" fill="none" xmlns="http://www.w3.org/2000/svg">
<path d="M79.1667 13.1107H20.8333C16.25 13.1107 12.5 16.8498 12.5 21.4198V79.583C12.5 84.153 16.25 87.8921 20.8333 87.8921H79.1667C83.75 87.8921 87.5 84.153 87.5 79.583V21.4198C87.5 16.8498 83.75 13.1107 79.1667 13.1107ZM79.1667 79.583H20.8333V60.5553L24.9583 64.6683L41.625 48.0502L58.2917 64.6683L74.9583 48.0918L79.1667 52.2878V79.583ZM79.1667 40.489L74.9583 36.2929L58.2917 52.9526L41.625 36.3345L24.9583 52.9526L20.8333 48.798V21.4198H79.1667V40.489Z" fill="#232323"/>
</svg>
