<svg width="26" height="29" viewBox="0 0 26 29" fill="none" xmlns="http://www.w3.org/2000/svg">
<g filter="url(#filter0_d_178_354)">
<path d="M11.09 15.59L12.5 17L17.5 12L12.5 7L11.09 8.41L13.67 11H4V13H13.67L11.09 15.59ZM20 3H6C4.89 3 4 3.9 4 5V9H6V5H20V19H6V15H4V19C4 20.1 4.89 21 6 21H20C21.1 21 22 20.1 22 19V5C22 3.9 21.1 3 20 3Z" fill="#232323"/>
</g>
<defs>
<filter id="filter0_d_178_354" x="-3" y="0" width="32" height="32" filterUnits="userSpaceOnUse" color-interpolation-filters="sRGB">
<feFlood flood-opacity="0" result="BackgroundImageFix"/>
<feColorMatrix in="SourceAlpha" type="matrix" values="0 0 0 0 0 0 0 0 0 0 0 0 0 0 0 0 0 0 127 0" result="hardAlpha"/>
<feOffset dy="4"/>
<feGaussianBlur stdDeviation="2"/>
<feComposite in2="hardAlpha" operator="out"/>
<feColorMatrix type="matrix" values="0 0 0 0 0 0 0 0 0 0 0 0 0 0 0 0 0 0 0.25 0"/>
<feBlend mode="normal" in2="BackgroundImageFix" result="effect1_dropShadow_178_354"/>
<feBlend mode="normal" in="SourceGraphic" in2="effect1_dropShadow_178_354" result="shape"/>
</filter>
</defs>
</svg>
