<svg width="400" height="400" viewBox="0 0 400 400" fill="none" xmlns="http://www.w3.org/2000/svg">
<path d="M263.064 46.448C263.064 46.448 199.592 21.512 138.888 56.704C78.184 91.896 49.024 164.304 23.864 222.256C-1.296 280.208 15.704 340.344 63.528 368.88C111.352 397.416 142.304 358.176 208.328 358.064C274.352 357.952 292.376 368.248 346.16 331.056C399.944 293.864 407.4 202.696 362.336 133.824C317.272 64.952 263.064 46.448 263.064 46.448Z" fill="#7E57C2"/>
<path opacity="0.7" d="M263.064 46.448C263.064 46.448 199.592 21.512 138.888 56.704C78.184 91.896 49.024 164.304 23.864 222.256C-1.296 280.208 15.704 340.344 63.528 368.88C111.352 397.416 142.304 358.176 208.328 358.064C274.352 357.952 292.376 368.248 346.16 331.056C399.944 293.864 407.4 202.696 362.336 133.824C317.272 64.952 263.064 46.448 263.064 46.448Z" fill="white"/>
<path d="M260.056 76.424L221.024 77.456L220.224 91.144L257.712 97.6C257.712 97.6 257.808 84.8 261.256 76.728" fill="white"/>
<path d="M260.056 76.424L221.024 77.456L220.224 91.144L257.712 97.6C257.712 97.6 257.808 84.8 261.256 76.728" stroke="#263238" stroke-miterlimit="10"/>
<path d="M274.4 75.824C274.565 75.5302 274.654 75.1994 274.657 74.8623C274.66 74.5252 274.578 74.1928 274.419 73.8958C274.259 73.5989 274.027 73.3471 273.744 73.1639C273.461 72.9808 273.136 72.8721 272.8 72.848C270.104 72.248 260.28 72.848 258.784 72.848C257.288 72.848 252.6 77.648 251.848 86.56C251.096 95.472 251.768 100.272 253.568 101.168C255.368 102.064 267.576 100.872 267.576 100.872C267.576 100.872 270.088 89.84 272.376 84.768C273.757 81.9918 274.451 78.9244 274.4 75.824Z" fill="white" stroke="#263238" stroke-miterlimit="10"/>
<path d="M239.56 358.672C242.072 340.84 244.968 318.368 244.84 310.384C244.616 296.408 244.216 294.2 244.216 294.2H137.904L136.84 296.8C135.284 310.98 135.265 325.288 136.784 339.472C138.128 351.248 139.248 362.72 139.984 370.968C153.544 366.776 168.288 362.088 185.544 359.696L186.104 320.344L190.472 317.032L192.504 358.872C197.544 358.384 202.792 358.072 208.288 358.072C220.104 358.048 230.4 358.4 239.56 358.672Z" fill="#263238" stroke="#263238" stroke-miterlimit="10"/>
<path d="M163.68 155.888H222.168L228.856 300.088C228.856 300.088 220.44 303.032 207.928 302.664C195.416 302.296 193.144 298.248 181.432 301.56C169.72 304.872 169.016 307.448 160.528 305.608L152 303.768L163.68 155.888Z" fill="white" stroke="#263238" stroke-miterlimit="10"/>
<path d="M193.408 261.92C192.84 263.624 192.384 265.032 192.112 266.032" stroke="#263238" stroke-miterlimit="10" stroke-linecap="round"/>
<path d="M206.064 227.656C206.064 227.656 199.256 245.352 195.048 257.208" stroke="#263238" stroke-miterlimit="10" stroke-linecap="round"/>
<path d="M190.256 244.968L188.744 248.384" stroke="#263238" stroke-miterlimit="10" stroke-linecap="round"/>
<path d="M200.672 221.48L193.024 238.728" stroke="#263238" stroke-miterlimit="10" stroke-linecap="round"/>
<path d="M206.048 167.952L206.776 232.944L206.736 324.472C206.736 324.472 221.936 324.472 231.144 322.072C240.352 319.672 251.776 307.2 251.776 307.2C251.776 307.2 239.32 235.944 238.872 226.104C238.424 216.264 242.072 164.088 242.072 164.088C242.072 164.088 294.336 102.536 297.672 97.608C302.912 89.856 304.304 83.592 303.064 80.312C301.824 77.032 274.352 74.648 271.384 75.512C268.416 76.376 264 97.296 264 97.296C264 97.296 245.152 111.904 238.352 115.776C231.552 119.648 227.408 121.44 218.824 125.016C213.229 127.482 208.05 130.802 203.472 134.856L206.048 167.952Z" fill="#7E57C2" stroke="#263238" stroke-miterlimit="10"/>
<path d="M231.648 153.288C231.648 155.16 231.736 156.896 231.84 158.408" stroke="#263238" stroke-miterlimit="10"/>
<path d="M232.744 121.144C232.744 121.144 231.688 136.92 231.632 149.44" stroke="#263238" stroke-miterlimit="10"/>
<path d="M236.288 119.056C236.288 119.056 234.12 133.072 233.64 140.224" stroke="#263238" stroke-miterlimit="10"/>
<path d="M264 97.296C264 97.296 274.064 89.408 276.488 89" stroke="#263238" stroke-miterlimit="10"/>
<path d="M178.296 166.16L175.4 246.96L171 327.2C162.939 325.293 155.027 322.801 147.328 319.744C135.624 314.944 129.288 309.904 129.288 309.904C129.288 309.904 133.944 283.968 137 269.656C140.056 255.344 144.056 225.832 143.984 221.064C143.912 216.296 143.28 195.72 141.32 184.688C139.36 173.656 130.488 159.64 130.464 158.152C130.44 156.664 161.256 144.44 166.872 141.456C170.016 139.726 173.42 138.518 176.952 137.88L178.456 138.472L178.296 166.16Z" fill="#7E57C2" stroke="#263238" stroke-miterlimit="10"/>
<path d="M177.792 134.264C177.792 134.264 172.192 136.944 171.064 142.312C169.936 147.68 166.104 168.248 165.856 171.232C165.608 174.216 166.776 173.024 169.12 170.336C171.464 167.648 174.072 163.184 175.288 164.376L181.04 170.04H203.104C204.25 169.611 205.264 168.891 206.048 167.952C207.216 166.464 209.248 162.88 210.464 164.072C211.68 165.264 214.776 173.024 215.64 171.232C216.504 169.44 212.288 147.384 210.984 140.52C209.68 133.656 197.992 129.488 177.792 134.264Z" fill="white" stroke="#263238" stroke-miterlimit="10"/>
<path d="M178.496 141.12C178.496 141.12 177.432 168.248 179.904 173.616C182.376 178.984 189.016 184.016 195.24 181.968C201.464 179.92 205.888 176.296 206.08 169.744C206.272 163.192 204.432 140.8 204.432 140.8L178.496 141.12Z" fill="white" stroke="#263238" stroke-miterlimit="10"/>
<path d="M206.08 169.744C206.272 163.184 204.432 140.824 204.432 140.824L178.496 141.12C178.496 141.12 178.112 150.904 178.344 159.88C182.616 159.468 186.728 158.048 190.344 155.736C194.021 153.311 197.225 150.237 199.8 146.664L205.688 172.576C205.922 171.649 206.053 170.699 206.08 169.744Z" fill="#263238" stroke="#263238" stroke-miterlimit="10"/>
<path d="M160.928 97.456C160.928 97.456 158.672 94.152 156.544 99.112C154.416 104.072 158.656 110.968 160.616 112.624C162.576 114.28 167.816 116.48 167.816 114C167.816 111.52 165.672 100.768 163.96 96.912C162.248 93.056 160.928 97.456 160.928 97.456Z" fill="white" stroke="#263238" stroke-miterlimit="10"/>
<path d="M223.52 98.288C223.52 98.288 225.672 94.976 227.96 99.944C230.248 104.912 226.216 111.792 224.312 113.448C222.408 115.104 217.208 117.312 217.168 114.824C217.128 112.336 218.888 101.592 220.48 97.736C222.072 93.88 223.52 98.288 223.52 98.288Z" fill="white" stroke="#263238" stroke-miterlimit="10"/>
<path d="M164.696 109.04C164.696 109.04 167.096 123.648 168.888 130.264C170.68 136.88 185.776 152.048 191.288 152.32C196.8 152.592 211.288 143.776 214.72 134.68C218.152 125.584 219.032 110.968 219.024 110.144C219.016 109.32 220.896 89.464 215.552 82.296C210.208 75.128 187.888 76.232 176.952 82.024C166.016 87.816 160.088 96.632 164.696 109.04Z" fill="white" stroke="#263238" stroke-miterlimit="10"/>
<path d="M183.64 121.6C183.64 123.352 182.888 124.8 181.896 124.8C180.904 124.8 180.08 123.384 180.056 121.6C180.032 119.816 180.808 118.4 181.8 118.4C182.792 118.4 183.608 119.832 183.64 121.6Z" fill="#263238"/>
<path d="M204.864 121.6C204.864 123.352 204.112 124.8 203.128 124.8C202.144 124.8 201.312 123.384 201.28 121.6C201.248 119.816 202.032 118.4 203.024 118.4C204.016 118.4 204.84 119.832 204.864 121.6Z" fill="#263238"/>
<path d="M185.128 111.24L174.736 116.48" stroke="#263238" stroke-width="3" stroke-miterlimit="10" stroke-linecap="round"/>
<path d="M201.12 111.52L211.416 117.584" stroke="#263238" stroke-width="3" stroke-miterlimit="10" stroke-linecap="round"/>
<path d="M196.728 132.336C196.711 132.805 196.6 133.265 196.403 133.691C196.206 134.116 195.926 134.499 195.58 134.815C195.234 135.131 194.828 135.376 194.386 135.534C193.945 135.692 193.476 135.761 193.008 135.736C192.054 135.778 191.12 135.447 190.406 134.812C189.692 134.177 189.254 133.289 189.184 132.336" stroke="#263238" stroke-miterlimit="10" stroke-linecap="round"/>
<path d="M190.32 142.4C191.107 142.051 191.959 141.871 192.82 141.871C193.681 141.871 194.533 142.051 195.32 142.4" stroke="#263238" stroke-miterlimit="10" stroke-linecap="round"/>
<path d="M176.24 124.6L180.456 125.4" stroke="#263238" stroke-miterlimit="10" stroke-linecap="round"/>
<path d="M209.64 124.6L205.064 126" stroke="#263238" stroke-miterlimit="10" stroke-linecap="round"/>
<path d="M179.288 55.552C179.288 55.552 165.056 62.176 160.576 75.408C156.096 88.64 162.112 102.424 162.976 106.008C163.84 109.592 164.44 111.52 164.44 111.52C164.44 111.52 168.504 106.832 171.504 104.624C174.504 102.416 180.544 101.32 184.12 100.488C187.696 99.656 200.048 96.632 203.32 93.288C206.592 89.944 207.656 88.6 207.656 88.6C207.656 88.6 210.36 102.656 214.008 106.792C216.182 109.237 217.74 112.167 218.552 115.336C218.552 115.336 220.952 109.824 222.8 104.864C224.648 99.904 225.944 77.016 220.824 67.368C215.704 57.72 194.064 48.392 179.288 55.552Z" fill="#263238" stroke="#263238" stroke-miterlimit="10"/>
<path d="M207.656 88.64C207.656 88.64 196.536 100.488 183.656 106.008C170.776 111.528 157.256 126.128 158.448 133.576C159.64 141.024 168.808 143.776 167.704 143.776C166.6 143.776 153.056 141.296 153.16 130.264C153.264 119.232 164.736 112.624 170.76 109.864C176.784 107.104 202.2 92.224 207.656 88.64Z" fill="#263238" stroke="#263238" stroke-miterlimit="10"/>
<path d="M210.264 96.912C210.264 96.912 214.056 110.144 216.336 114.512C218.616 118.88 222.632 129.4 219.72 136.84C216.808 144.28 214.616 145.384 214.616 145.384C214.616 145.384 224.432 138.496 224.256 127.192C224.08 115.888 212.04 104.624 210.264 96.912Z" fill="#263238" stroke="#263238" stroke-miterlimit="10"/>
<path d="M208.294 59.7744C208.561 52.246 201.435 45.8827 192.379 45.5617C183.323 45.2407 175.765 51.0835 175.498 58.612C175.231 66.1404 182.357 72.5036 191.413 72.8246C200.469 73.1456 208.027 67.3028 208.294 59.7744Z" fill="#263238" stroke="#263238" stroke-miterlimit="10"/>
<path d="M201.763 48.0571C201.903 43.6454 197.634 39.9306 192.228 39.7598C186.823 39.589 182.328 43.0269 182.189 47.4385C182.05 51.8502 186.318 55.565 191.724 55.7358C197.129 55.9066 201.624 52.4687 201.763 48.0571Z" fill="#263238" stroke="#263238" stroke-miterlimit="10"/>
<path d="M110.616 260.672L111.328 305.696C111.328 305.696 107.768 325.368 109.576 326.864C111.384 328.36 117.44 333.72 118.656 335.208C119.872 336.696 122.264 337.296 124.056 337.608C125.848 337.92 130.896 336.416 129.96 333.736C129.024 331.056 127.88 334.328 126.976 333.432C126.079 332.406 125.263 331.312 124.536 330.16L126.224 323.6C126.224 323.6 126.616 329.856 128.112 330.16C129.608 330.464 129.888 329.264 129.848 326.88C129.808 324.496 129.208 323.896 129.432 319.424C129.656 314.952 127.832 311.672 126.888 309.288C125.944 306.904 124.096 302.432 123.776 300.936C123.456 299.44 133.328 263.968 133.328 263.968C133.328 263.968 126.84 268.128 110.616 260.672Z" fill="white" stroke="#263238" stroke-miterlimit="10"/>
<path d="M130.464 158.112C130.464 158.112 121.928 164.968 120.6 175.408C119.272 185.848 118.912 200.744 117.8 205.52C116.688 210.296 112.2 247.856 112.2 247.856C112.2 247.856 116.44 252.024 120.04 253.816C123.64 255.608 131.672 254.112 132.84 253.816C134.06 253.411 135.247 252.913 136.392 252.328C136.392 252.328 141.296 223.104 141.52 218.04C141.744 212.976 143.664 202.84 143.664 202.84C143.664 202.84 143.472 170.04 130.464 158.112Z" fill="#7E57C2" stroke="#263238" stroke-miterlimit="10"/>
<path d="M136.064 215.352C135.408 216.504 134.84 217.52 134.464 218.296" stroke="#263238" stroke-miterlimit="10"/>
<path d="M143.696 202.832C143.696 202.832 140.552 207.8 137.824 212.36" stroke="#263238" stroke-miterlimit="10"/>
<path d="M136.536 209.392L130.304 219.776" stroke="#263238" stroke-miterlimit="10"/>
<path d="M111.2 241.888C111.2 241.888 117.248 247.256 122.944 249.048C128.64 250.84 133.4 250.536 135.48 249.944C137.56 249.352 138.432 248.448 138.768 250.832C139.104 253.216 137.168 261.568 137.168 263.952C137.168 266.336 136.368 267.528 131.568 268.424C126.768 269.32 116.648 267.528 113.632 265.44C110.616 263.352 108.488 260.376 108.744 257.688C109 255 110.096 249.048 110.344 246.96C110.592 244.872 110.032 242.488 111.2 241.888Z" fill="white" stroke="#263238" stroke-miterlimit="10"/>
<path d="M174.72 198.184C174.648 198.118 174.571 198.059 174.488 198.008C172.376 196.688 161.552 199.488 158.808 199.488C149.904 199.488 146.224 197.088 145.872 200.288C145.52 203.488 144.76 206.768 145.6 208.384C146.44 210 149.24 208.384 151.672 208.792C154.104 209.2 159.008 211.992 161.032 211.992C163.056 211.992 168.232 208.792 169.48 208.792C170.728 208.792 173.544 210 174.344 208.792C175.6 206.816 176.48 199.872 174.72 198.184Z" fill="white" stroke="#263238" stroke-miterlimit="10"/>
<path d="M162.072 207.8C162.077 208.031 162.036 208.261 161.951 208.475C161.866 208.69 161.739 208.886 161.577 209.051C161.416 209.216 161.222 209.346 161.009 209.435C160.796 209.524 160.567 209.569 160.336 209.568C159.865 209.566 159.414 209.38 159.08 209.049C158.745 208.719 158.552 208.27 158.544 207.8C158.54 207.57 158.582 207.341 158.667 207.127C158.752 206.913 158.88 206.718 159.041 206.555C159.203 206.391 159.396 206.261 159.609 206.172C159.821 206.084 160.05 206.039 160.28 206.04C160.749 206.042 161.199 206.227 161.534 206.556C161.868 206.885 162.062 207.331 162.072 207.8Z" stroke="#263238" stroke-miterlimit="10" stroke-linecap="round"/>
<path d="M237.048 198.184C236.976 198.118 236.899 198.059 236.816 198.008C234.696 196.688 223.88 199.488 221.136 199.488C212.232 199.488 208.552 197.088 208.2 200.288C207.848 203.488 207.088 206.768 207.92 208.384C208.752 210 211.568 208.384 214 208.792C216.432 209.2 221.336 211.992 223.36 211.992C225.384 211.992 230.56 208.792 231.808 208.792C233.056 208.792 235.872 210 236.672 208.792C237.92 206.816 238.808 199.872 237.048 198.184Z" fill="white" stroke="#263238" stroke-miterlimit="10"/>
<path d="M224.72 208.248C224.724 208.478 224.682 208.707 224.597 208.921C224.512 209.135 224.384 209.33 224.223 209.493C224.061 209.657 223.868 209.787 223.655 209.876C223.443 209.964 223.214 210.009 222.984 210.008C222.515 210.006 222.065 209.821 221.73 209.492C221.396 209.163 221.202 208.717 221.192 208.248C221.187 208.017 221.228 207.787 221.313 207.573C221.398 207.358 221.525 207.162 221.687 206.997C221.848 206.832 222.042 206.702 222.255 206.613C222.468 206.524 222.697 206.479 222.928 206.48C223.399 206.482 223.85 206.668 224.184 206.999C224.519 207.329 224.712 207.778 224.72 208.248Z" stroke="#263238" stroke-miterlimit="10" stroke-linecap="round"/>
<path d="M133.112 69.248H70.92C70.3033 69.248 69.6927 69.3695 69.1229 69.6055C68.5532 69.8414 68.0355 70.1873 67.5994 70.6234C67.1634 71.0595 66.8175 71.5772 66.5815 72.1469C66.3455 72.7167 66.224 73.3273 66.224 73.944V93.896C66.224 94.5123 66.3455 95.1226 66.5816 95.6919C66.8177 96.2612 67.1637 96.7783 67.5999 97.2137C68.0361 97.6492 68.5538 97.9943 69.1235 98.2294C69.6932 98.4646 70.3037 98.585 70.92 98.584H122.264L135.44 108.344L130.912 98.584H133.112C133.728 98.585 134.339 98.4646 134.908 98.2294C135.478 97.9943 135.996 97.6492 136.432 97.2137C136.868 96.7783 137.214 96.2612 137.45 95.6919C137.686 95.1226 137.808 94.5123 137.808 93.896V73.944C137.808 73.3273 137.687 72.7167 137.451 72.1469C137.215 71.5772 136.869 71.0595 136.433 70.6234C135.997 70.1873 135.479 69.8414 134.909 69.6055C134.339 69.3695 133.729 69.248 133.112 69.248Z" fill="#263238" stroke="#263238" stroke-miterlimit="10"/>
<path d="M133.88 68.064H71.6879C71.0716 68.063 70.4612 68.1834 69.8915 68.4186C69.3218 68.6537 68.804 68.9988 68.3679 69.4343C67.9317 69.8697 67.5857 70.3868 67.3496 70.9561C67.1135 71.5254 66.9919 72.1357 66.9919 72.752V92.704C66.9919 93.3203 67.1135 93.9306 67.3496 94.4999C67.5857 95.0692 67.9317 95.5863 68.3679 96.0217C68.804 96.4572 69.3218 96.8023 69.8915 97.0374C70.4612 97.2726 71.0716 97.3931 71.6879 97.392H123.032L135.44 108.344L131.68 97.392H133.88C135.123 97.392 136.316 96.8981 137.195 96.0189C138.074 95.1397 138.568 93.9473 138.568 92.704V72.752C138.568 72.1364 138.447 71.5268 138.211 70.958C137.975 70.3892 137.63 69.8724 137.195 69.4371C136.76 69.0018 136.243 68.6565 135.674 68.4209C135.105 68.1853 134.496 68.064 133.88 68.064Z" fill="white" stroke="#263238" stroke-miterlimit="10"/>
<path d="M77.448 75.696V89.016H76V75.696H77.448Z" fill="#263238"/>
<path d="M79.752 79.2H79.144L79.616 77.528H79.064V75.696H80.496V77.392L79.752 79.2Z" fill="#263238"/>
<path d="M86.9199 88.992H85.4959L83.2879 78.4V89.016H81.9919V75.696H84.0719L86.2559 86.328L88.3679 75.696H90.4399V89.016H89.0319V78.304L86.9199 88.992Z" fill="#263238"/>
<path d="M100.672 78.896V79.256H99.264V78.816C99.264 77.616 98.808 76.92 97.744 76.92C96.68 76.92 96.224 77.616 96.224 78.8C96.224 81.784 100.688 82.072 100.688 85.816C100.688 87.832 99.72 89.144 97.688 89.144C95.656 89.144 94.696 87.832 94.696 85.816V85.016H96.088V85.856C96.088 87.048 96.584 87.752 97.688 87.752C98.792 87.752 99.288 87.048 99.288 85.856C99.288 82.888 94.84 82.6 94.84 78.856C94.84 76.8 95.784 75.528 97.784 75.528C99.784 75.528 100.672 76.88 100.672 78.896Z" fill="#263238"/>
<path d="M101.872 78.912C101.872 76.88 102.88 75.568 104.912 75.568C106.944 75.568 108 76.88 108 78.912V85.8C108 87.816 106.992 89.144 104.936 89.144C102.88 89.144 101.896 87.816 101.896 85.8L101.872 78.912ZM103.336 85.872C103.336 87.088 103.848 87.792 104.936 87.792C106.024 87.792 106.536 87.088 106.536 85.872V78.84C106.536 77.64 106.048 76.92 104.936 76.92C103.824 76.92 103.336 77.64 103.336 78.84V85.872Z" fill="#263238"/>
<path d="M112.352 75.696C114.44 75.696 115.312 76.76 115.312 78.744V79.824C115.312 81.288 114.8 82.224 113.664 82.568C114.88 82.928 115.336 83.912 115.336 85.344V87.416C115.291 87.9629 115.382 88.5124 115.6 89.016H114.096C113.892 88.5087 113.807 87.9613 113.848 87.416V85.328C113.848 83.824 113.144 83.352 111.912 83.352H110.864V89.04H109.384V75.696H112.352ZM111.968 81.976C113.144 81.976 113.848 81.592 113.848 80.152V78.872C113.848 77.68 113.416 77.048 112.312 77.048H110.864V81.976H111.968Z" fill="#263238"/>
<path d="M119.84 75.696C121.936 75.696 122.808 76.76 122.808 78.744V79.824C122.808 81.288 122.296 82.224 121.152 82.568C122.368 82.928 122.824 83.912 122.824 85.344V87.416C122.782 87.9636 122.875 88.5131 123.096 89.016H121.6C121.392 88.5098 121.307 87.9614 121.352 87.416V85.328C121.352 83.824 120.648 83.352 119.408 83.352H118.4V89.04H116.912V75.696H119.84ZM119.464 81.976C120.64 81.976 121.344 81.592 121.344 80.152V78.872C121.344 77.68 120.904 77.048 119.8 77.048H118.4V81.976H119.464Z" fill="#263238"/>
<path d="M126.536 84.24L123.72 75.696H125.264L127.336 82.24L129.424 75.696H130.832L128 84.24V89.04H126.536V84.24Z" fill="#263238"/>
</svg>
