<svg width="133" height="30" viewBox="0 0 133 30" fill="none" xmlns="http://www.w3.org/2000/svg">
<path d="M8.53845 14.9422L8.59613 19.1334H9.5574H10.5187L10.5764 16.9609C10.5956 15.7881 10.6917 14.8076 10.7686 14.8076C10.8455 14.8076 11.4607 15.7497 12.1336 16.9032C12.7873 18.0567 13.4602 19.0565 13.6332 19.1141C13.787 19.1718 14.2484 19.2295 14.6714 19.2295C15.2866 19.2295 15.4404 19.1526 15.5173 18.7873C15.575 18.5566 15.5942 16.6725 15.575 14.6154L15.5173 10.8664L14.6906 10.8087C13.3833 10.7126 13.2679 10.9241 13.3256 13.1158C13.3641 14.1347 13.3256 15.0383 13.2679 15.096C13.2103 15.1729 12.6719 14.3654 12.0759 13.3273C11.4992 12.2891 10.9224 11.3278 10.8263 11.174C10.7302 11.0202 10.2111 10.8664 9.57663 10.8279L8.5 10.751L8.53845 14.9422Z" fill="#4817AB"/>
<path d="M19.9392 11.001C19.8815 11.1548 19.8623 13.0389 19.8815 15.1922L19.9392 19.1334H22.7269H25.5146L25.5722 18.3067C25.6107 17.7492 25.553 17.4993 25.38 17.48C25.2454 17.48 24.4379 17.4608 23.592 17.4416L22.054 17.4031L21.9963 16.5764L21.9386 15.769H23.4767H25.0339V14.9038V14.0387H23.4767H21.9386L21.9963 13.3081L22.054 12.5967L23.7843 12.5775H25.5146V11.7124V10.8664L22.7653 10.8088C20.6505 10.7703 19.9968 10.8088 19.9392 11.001Z" fill="#4817AB"/>
<path d="M29.6096 10.8857C29.5135 10.9626 29.4558 12.8851 29.4558 15.1345V19.2488L30.4748 19.1911L31.4745 19.1334L31.5706 17.7876L31.6667 16.4419L33.0318 16.3265C35.2042 16.1727 36.1463 15.1922 35.9348 13.3465C35.8387 12.4045 35.3196 11.7124 34.3583 11.2125C33.7431 10.8857 29.8595 10.6165 29.6096 10.8857ZM33.6278 13.0005C34.2814 13.9041 33.5316 14.8846 32.3012 14.7692C31.7052 14.7116 31.6667 14.6731 31.6091 13.8656C31.5129 12.5967 31.6283 12.4237 32.5703 12.5583C33.0125 12.616 33.4932 12.8275 33.6278 13.0005Z" fill="#4817AB"/>
<path d="M39.7416 10.9241C39.684 10.9818 39.6455 11.3471 39.6455 11.7508V12.4814L40.8567 12.5391L42.0487 12.5967L42.1064 15.9228L42.1448 19.2488L43.1638 19.1911L44.1635 19.1334L44.2596 15.8651L44.3558 12.5967L45.567 12.5391L46.7782 12.4814L46.7205 11.6739L46.6628 10.8664L43.2599 10.8472C41.395 10.828 39.7993 10.8664 39.7416 10.9241Z" fill="#4817AB"/>
<path d="M50.7386 10.8856C50.6617 10.9625 50.604 12.3852 50.604 14.0194C50.604 16.5764 50.6617 17.1339 50.9693 17.6914C51.4692 18.6527 52.565 19.2295 53.8723 19.2295C55.1605 19.2295 56.1217 18.7873 56.7177 17.9029C57.1215 17.2685 57.1407 17.0955 57.1022 14.0578L57.0446 10.8664H56.0833H55.122L55.0259 14.0001C54.9297 17.3646 54.8721 17.4992 53.8723 17.4992C52.8726 17.4992 52.8149 17.3646 52.7188 14.0001L52.6227 10.8664L51.7575 10.8087C51.2769 10.7703 50.8155 10.8087 50.7386 10.8856Z" fill="#4817AB"/>
<path d="M61.4469 11.0202C61.4084 11.1548 61.3892 13.0389 61.4084 15.1922L61.4661 19.1334H62.4274H63.3887L63.4848 16.8264L63.5809 14.5193L63.9654 15.1537C64.1769 15.4998 64.7921 16.538 65.3112 17.4608L66.2917 19.1334H67.3299H68.3873L68.445 15.2114C68.4834 12.4237 68.4257 11.2125 68.2719 11.0202C68.1181 10.8472 67.7336 10.7703 67.1569 10.8088L66.2725 10.8664V13.0389C66.2725 14.2117 66.2148 15.1922 66.1379 15.1922C66.061 15.1922 65.5035 14.327 64.9075 13.2504C64.3115 12.193 63.6963 11.1933 63.5425 11.0395C63.1964 10.6934 61.5815 10.6742 61.4469 11.0202Z" fill="#4817AB"/>
<path d="M72.7131 14.9999V19.2488L75.5585 19.1911L78.3847 19.1334L78.4423 18.326L78.5 17.5185L76.712 17.4608L74.9241 17.4031L74.8664 16.5957L74.8087 15.7882L76.3083 15.7305L77.8079 15.6728L77.8656 14.8461L77.9233 14.0387H76.366H74.8087L74.8664 13.3081L74.9241 12.5967L76.712 12.5391L78.5 12.4814L78.4423 11.6739L78.3847 10.8664L75.5585 10.8088L72.7131 10.7511V14.9999Z" fill="#4817AB"/>
<g clip-path="url(#clip0_579_322)">
<path d="M124.5 15C124.5 23.2837 117.786 30 109.5 30C101.216 30 94.5005 23.2837 94.5005 15C94.5005 6.71537 101.216 0 109.5 0C117.786 0 124.5 6.71537 124.5 15Z" fill="url(#paint0_linear_579_322)"/>
<path d="M111.375 7.5H96.5072C96.2728 7.90465 96.0567 8.32213 95.8608 8.74969H111.375C111.721 8.74969 112.001 8.46955 112.001 8.12438C112.001 7.7792 111.721 7.5 111.375 7.5Z" fill="#4516A2"/>
<path d="M121.685 23.7498H110.126C109.78 23.7498 109.5 24.0299 109.5 24.3751C109.5 24.7202 109.78 24.9994 110.126 24.9994H120.68C121.037 24.6021 121.372 24.1846 121.685 23.7498Z" fill="#4516A2"/>
<path d="M103.25 19.9998H95.3535C95.5046 20.4255 95.674 20.843 95.8607 21.2494H103.25C103.595 21.2494 103.875 20.9702 103.875 20.6251C103.875 20.28 103.595 19.9998 103.25 19.9998Z" fill="#4516A2"/>
<path d="M115.75 15.6244C115.75 15.9696 116.03 16.2497 116.375 16.2497H124.448C124.483 15.8377 124.5 15.4211 124.5 15H116.375C116.03 15 115.75 15.2793 115.75 15.6244Z" fill="#4516A2"/>
<path d="M98.8756 14.3747C98.8756 14.0295 98.5954 13.7494 98.2502 13.7494H94.5515C94.5176 14.1623 94.5002 14.5788 94.5002 15H98.2502C98.5954 15 98.8756 14.7199 98.8756 14.3747Z" fill="#4516A2"/>
<path d="M105.125 3.75001C105.47 3.75001 105.75 3.46988 105.75 3.1247C105.75 2.77953 105.47 2.49939 105.125 2.49939H101.206C100.635 2.87937 100.091 3.29773 99.5786 3.75001H105.125Z" fill="#4516A2"/>
<path d="M114.5 15.6244C114.5 16.6608 112.822 17.4994 110.75 17.4994C108.679 17.4994 107 16.6608 107 15.6244C107 14.5889 108.679 13.7494 110.75 13.7494C112.822 13.7494 114.5 14.5889 114.5 15.6244Z" fill="#4516A2"/>
</g>
<defs>
<linearGradient id="paint0_linear_579_322" x1="109.5" y1="0" x2="109.5" y2="30" gradientUnits="userSpaceOnUse">
<stop stop-color="#A87CFF"/>
<stop offset="1" stop-color="#654B99"/>
</linearGradient>
<clipPath id="clip0_579_322">
<rect width="30" height="30" fill="white" transform="translate(94.5)"/>
</clipPath>
</defs>
</svg>
