<svg width="239" height="50" viewBox="0 0 239 50" fill="none" xmlns="http://www.w3.org/2000/svg">
<path d="M8.0905 24.8642L8.22624 34.7284H10.4887H12.7511L12.8868 29.6153C12.9321 26.8551 13.1583 24.5475 13.3393 24.5475C13.5203 24.5475 14.9683 26.7646 16.552 29.4795C18.0904 32.1945 19.6741 34.5474 20.0814 34.6831C20.4433 34.8189 21.5293 34.9546 22.5248 34.9546C23.9727 34.9546 24.3347 34.7736 24.5157 33.9139C24.6515 33.3709 24.6967 28.9366 24.6515 24.095L24.5157 15.2715L22.57 15.1358C19.4931 14.9095 19.2216 15.4072 19.3574 20.5656C19.4479 22.9638 19.3574 25.0904 19.2216 25.2262C19.0859 25.4072 17.8189 23.5067 16.4162 21.0633C15.0588 18.6199 13.7013 16.3575 13.4751 15.9955C13.2488 15.6335 12.0271 15.2715 10.5339 15.181L8 15L8.0905 24.8642Z" fill="#4817AB"/>
<path d="M34.923 15.5884C34.7872 15.9504 34.742 20.3847 34.7872 25.4526L34.923 34.7285H41.484H48.0451L48.1808 32.7828C48.2713 31.4706 48.1356 30.8824 47.7283 30.8371C47.4116 30.8371 45.5111 30.7919 43.5202 30.7466L39.9003 30.6561L39.7646 28.7105L39.6288 26.81H43.2487H46.9138V24.7738V22.7376H43.2487H39.6288L39.7646 21.0182L39.9003 19.344L43.9727 19.2988H48.0451V17.2626V15.2716L41.5745 15.1359C36.5972 15.0454 35.0587 15.1359 34.923 15.5884Z" fill="#4817AB"/>
<path d="M57.6832 15.3169C57.4569 15.4979 57.3212 20.0227 57.3212 25.3168V35L59.7193 34.8643L62.0723 34.7285L62.2985 31.5611L62.5248 28.3937L65.7374 28.1222C70.8505 27.7602 73.0677 25.4526 72.5699 21.1087C72.3437 18.8915 71.122 17.2626 68.8595 16.0861C67.4116 15.3169 58.2714 14.6834 57.6832 15.3169ZM67.1401 20.2942C68.6786 22.4209 66.9139 24.7286 64.018 24.4571C62.6152 24.3213 62.5248 24.2308 62.389 22.3304C62.1628 19.344 62.4343 18.9368 64.6514 19.2535C65.6921 19.3893 66.8234 19.887 67.1401 20.2942Z" fill="#4817AB"/>
<path d="M81.5293 15.4074C81.3936 15.5431 81.3031 16.4028 81.3031 17.3531V19.0725L84.1538 19.2083L86.9592 19.344L87.0949 27.172L87.1854 35L89.5836 34.8643L91.9365 34.7285L92.1628 27.0363L92.389 19.344L95.2397 19.2083L98.0903 19.0725L97.9546 17.1721L97.8188 15.2716L89.8098 15.2264C85.4207 15.1811 81.6651 15.2716 81.5293 15.4074Z" fill="#4817AB"/>
<path d="M107.411 15.3168C107.23 15.4977 107.094 18.8461 107.094 22.6923C107.094 28.7103 107.23 30.0225 107.954 31.3347C109.13 33.5972 111.71 34.9546 114.786 34.9546C117.818 34.9546 120.081 33.9139 121.483 31.8325C122.433 30.3393 122.479 29.932 122.388 22.7828L122.253 15.2715H119.99H117.728L117.501 22.647C117.275 30.5655 117.139 30.8823 114.786 30.8823C112.434 30.8823 112.298 30.5655 112.072 22.647L111.845 15.2715L109.809 15.1358C108.678 15.0453 107.592 15.1358 107.411 15.3168Z" fill="#4817AB"/>
<path d="M132.614 15.6336C132.524 15.9504 132.478 20.3847 132.524 25.4526L132.659 34.7285H134.922H137.184L137.41 29.2987L137.637 23.8689L138.542 25.3621C139.039 26.1765 140.487 28.62 141.709 30.7919L144.017 34.7285H146.46H148.949L149.085 25.4978C149.175 18.9368 149.039 16.0861 148.677 15.6336C148.315 15.2264 147.41 15.0454 146.053 15.1359L143.971 15.2716V20.3847C143.971 23.1449 143.836 25.4526 143.655 25.4526C143.474 25.4526 142.161 23.4164 140.759 20.8825C139.356 18.3938 137.908 16.0409 137.546 15.6789C136.732 14.8644 132.931 14.8192 132.614 15.6336Z" fill="#4817AB"/>
<path d="M159.13 25.0001V35L165.826 34.8643L172.478 34.7285L172.614 32.8281L172.749 30.9276L168.541 30.7919L164.333 30.6561L164.197 28.7557L164.062 26.8553L167.591 26.7195L171.12 26.5838L171.256 24.6381L171.392 22.7376H167.727H164.062L164.197 21.0182L164.333 19.344L168.541 19.2083L172.749 19.0725L172.614 17.1721L172.478 15.2716L165.826 15.1359L159.13 15.0001V25.0001Z" fill="#4817AB"/>
<g clip-path="url(#clip0_579_382)">
<path d="M238.749 25C238.749 38.8062 227.558 50 213.75 50C199.942 50 188.75 38.8062 188.75 25C188.75 11.1923 199.942 0 213.75 0C227.558 0 238.749 11.1923 238.749 25Z" fill="url(#paint0_linear_579_382)"/>
<path d="M216.875 12.5H192.094C191.704 13.1744 191.344 13.8702 191.017 14.5828H216.875C217.45 14.5828 217.917 14.1159 217.917 13.5406C217.917 12.9653 217.45 12.5 216.875 12.5Z" fill="#4516A2"/>
<path d="M234.058 39.5828H214.792C214.217 39.5828 213.75 40.0497 213.75 40.625C213.75 41.2003 214.217 41.6656 214.792 41.6656H232.383C232.978 41.0034 233.536 40.3076 234.058 39.5828Z" fill="#4516A2"/>
<path d="M203.332 33.3328H190.172C190.424 34.0424 190.706 34.7382 191.017 35.4156H203.332C203.908 35.4156 204.375 34.9502 204.375 34.375C204.375 33.7998 203.908 33.3328 203.332 33.3328Z" fill="#4516A2"/>
<path d="M224.167 26.0406C224.167 26.6159 224.632 27.0828 225.207 27.0828H238.663C238.721 26.3962 238.749 25.7019 238.749 25H225.207C224.632 25 224.167 25.4654 224.167 26.0406Z" fill="#4516A2"/>
<path d="M196.042 23.9578C196.042 23.3825 195.575 22.9156 195 22.9156H188.835C188.779 23.6038 188.75 24.298 188.75 25H195C195.575 25 196.042 24.5331 196.042 23.9578Z" fill="#4516A2"/>
<path d="M206.457 6.24999C207.033 6.24999 207.5 5.7831 207.5 5.20781C207.5 4.63251 207.033 4.16562 206.457 4.16562H199.927C198.975 4.79892 198.068 5.49619 197.214 6.24999H206.457Z" fill="#4516A2"/>
<path d="M222.082 26.0406C222.082 27.768 219.285 29.1656 215.832 29.1656C212.381 29.1656 209.582 27.768 209.582 26.0406C209.582 24.3148 212.381 22.9156 215.832 22.9156C219.285 22.9156 222.082 24.3148 222.082 26.0406Z" fill="#4516A2"/>
</g>
<defs>
<linearGradient id="paint0_linear_579_382" x1="213.749" y1="0" x2="213.749" y2="50" gradientUnits="userSpaceOnUse">
<stop stop-color="#A87CFF"/>
<stop offset="1" stop-color="#654B99"/>
</linearGradient>
<clipPath id="clip0_579_382">
<rect width="50" height="50" fill="white" transform="translate(188.749)"/>
</clipPath>
</defs>
</svg>
