<svg width="121" height="43" viewBox="0 0 121 43" fill="none" xmlns="http://www.w3.org/2000/svg">
<g filter="url(#filter0_d_226_361)">
<path d="M19.312 0.14385C17.601 0.738072 17.3182 2.86029 18.8171 3.96385C19.6938 4.61466 21.2069 4.28926 21.7867 3.34133C22.4371 2.26607 21.9988 0.75222 20.8817 0.242887C20.2312 -0.0542243 19.9342 -0.0683724 19.312 0.14385Z" fill="url(#paint0_linear_226_361)"/>
<path d="M14.1363 1.4313C9.58301 3.70915 7.03769 7.33108 7.02354 11.5048C7.02354 13.3723 7.17909 13.9241 8.64972 17.5602C9.87996 20.602 9.8941 20.6445 9.58301 20.7718C9.41332 20.8567 8.35277 21.2953 7.22151 21.748C5.80745 22.3281 5.08627 22.696 4.90244 22.9506L4.61963 23.3185L5.41151 24.9031C6.78315 27.6337 8.9184 29.8974 11.1102 30.9443C12.6515 31.68 13.302 31.8498 15.013 31.9206C17.1058 32.0054 18.0674 31.7649 21.7864 30.2652C23.6671 29.5154 24.5721 29.2041 24.6428 29.3173C24.6994 29.4022 25.1378 30.4209 25.6185 31.5952C26.1135 32.7553 26.5942 33.8306 26.7074 33.9579C27.0326 34.3399 27.5558 34.2692 28.8002 33.6608C32.3636 31.9206 34.9797 28.9494 35.715 25.8086C35.9837 24.705 35.9837 22.3564 35.715 21.2529C35.6019 20.7718 35.0079 19.1165 34.3716 17.5885C33.7494 16.0463 33.2404 14.6881 33.2404 14.5608C33.2404 14.4052 33.905 14.0656 35.4746 13.4289C36.6907 12.9337 37.8078 12.4244 37.9492 12.3112C38.3169 11.9858 38.2462 11.4623 37.6381 10.2173C35.2625 5.36448 30.9496 2.61975 26.4811 3.10078C25.0953 3.25641 24.4449 3.45449 21.2208 4.77026C19.7077 5.39278 18.4209 5.85967 18.3644 5.80308C18.3219 5.74648 17.8553 4.68538 17.3321 3.44034C16.823 2.1953 16.3281 1.10589 16.2433 1.00686C15.9746 0.68145 15.3665 0.808783 14.1363 1.4313ZM15.9746 4.54389C16.3705 5.49182 16.6958 6.34071 16.6958 6.41145C16.6958 6.49634 16.215 6.79345 15.6352 7.09056C14.4191 7.72723 13.5141 8.63271 12.9202 9.84945C12.5667 10.571 12.5243 10.7974 12.5243 12.1414V13.627L13.5424 16.1029C15.4514 20.7577 15.6776 21.267 16.017 21.5217C16.3564 21.7763 16.3988 21.7622 19.3684 20.6445C21.0087 20.0078 22.4369 19.4843 22.5217 19.456C22.7763 19.4136 23.7661 21.932 23.5681 22.13C23.4833 22.2149 21.9702 22.8657 20.2027 23.5873C17.3321 24.7333 16.9079 24.8748 16.1019 24.8748C14.9706 24.8748 14.009 24.4362 13.2313 23.5873C12.7505 23.0638 12.3546 22.2291 10.8698 18.5789C9.8941 16.1595 9.01738 13.9383 8.93254 13.627C8.05581 10.3305 9.39918 6.89249 12.5101 4.44486C13.3586 3.77989 14.8999 2.81782 15.1544 2.80367C15.1969 2.80367 15.5645 3.58182 15.9746 4.54389ZM29.4789 4.99663C31.4728 5.52012 33.6363 7.14715 35.0362 9.19863C35.8564 10.4012 36.2665 11.1369 36.1533 11.2643C36.0261 11.3774 32.7879 12.7074 32.6182 12.7074C32.5333 12.7074 32.2222 12.2263 31.9253 11.6604C31.2748 10.3871 30.4405 9.58063 29.182 9.00056C28.1073 8.49123 26.5942 8.32145 25.5337 8.59026C24.6004 8.83078 17.8553 11.6463 17.5301 11.9434C17.3887 12.0707 17.2614 12.2688 17.2614 12.3678C17.2614 12.4669 17.7705 13.8817 18.4068 15.5229C19.029 17.1782 19.5239 18.5789 19.4956 18.6637C19.4391 18.8194 16.9786 19.838 16.8937 19.739C16.8655 19.7107 16.2433 18.2252 15.4938 16.4142C14.2494 13.3723 14.1504 13.0752 14.1504 12.1839C14.1504 10.9672 14.5747 10.0051 15.4655 9.22693C15.9887 8.77419 16.8937 8.34974 20.4572 6.90663C22.8611 5.94456 25.1519 5.08152 25.5337 4.98249C26.5377 4.74197 28.5032 4.74197 29.4789 4.99663ZM28.2346 10.4012C28.6871 10.5569 29.1678 10.8823 29.6345 11.3492C30.2991 12.0283 30.4405 12.3254 32.0243 16.2444C34.0464 21.2387 34.2302 21.8188 34.2302 23.5732C34.2302 26.8414 32.3919 29.6286 28.8992 31.68C28.376 31.9772 27.8952 32.2318 27.8245 32.2318C27.7679 32.2318 27.6689 32.0903 27.5982 31.9064C27.5275 31.7366 27.1882 30.916 26.8346 30.0813L26.1842 28.5533L27.3013 27.9732C28.6446 27.28 29.4224 26.4877 30.0304 25.186C30.4405 24.3089 30.4829 24.1249 30.4829 22.8233L30.4688 21.4085L28.9275 17.6875C27.4144 14.009 27.0326 13.2733 26.6649 13.2733C26.566 13.2733 25.1519 13.7826 23.5399 14.4052C21.9278 15.0418 20.5138 15.5229 20.4006 15.5087C20.0895 15.4521 19.2128 13.1035 19.4249 12.9054C19.5239 12.8206 20.1744 12.5234 20.8673 12.2405C21.5743 11.9575 23.0025 11.3774 24.0489 10.953C26.1842 10.0758 26.976 9.97678 28.2346 10.4012ZM27.471 18.6072C28.8992 22.0734 29.0689 22.8799 28.6588 24.1249C28.3901 24.9172 27.6689 25.8369 26.976 26.2754C26.3539 26.6574 18.5058 29.8125 17.5442 30.0672C16.5685 30.336 14.7444 30.3501 13.7262 30.1237C11.8879 29.6993 9.76684 28.2703 8.48003 26.6292C7.60331 25.4973 6.75487 24.0542 6.83972 23.842C6.88214 23.7429 7.7023 23.3326 8.69214 22.9365L10.4597 22.2149L10.9547 23.2336C11.6051 24.5918 12.7505 25.6812 14.0232 26.1623C14.7444 26.4311 15.1969 26.5018 16.2008 26.5018H17.4735L21.3622 24.9172C24.162 23.7854 25.3216 23.2477 25.5054 23.0072C25.7599 22.6535 25.7599 22.6394 24.5721 19.5551C23.8934 17.8007 23.4267 16.4 23.4974 16.3293C23.7237 16.0888 25.9579 15.2823 26.0852 15.3955C26.1559 15.4663 26.7781 16.9094 27.471 18.6072Z" fill="url(#paint1_linear_226_361)"/>
<path d="M35.7858 14.1506C34.7111 14.8863 34.4142 15.8908 34.9657 16.9519C35.7858 18.5365 37.9069 18.5365 38.7271 16.9519C38.9675 16.485 39.0382 16.1596 38.9816 15.7635C38.8544 14.7165 37.8786 13.8393 36.8464 13.8393C36.4646 13.8393 36.0828 13.9525 35.7858 14.1506Z" fill="url(#paint2_linear_226_361)"/>
<path d="M5.68039 16.9659C3.7007 17.3903 3.37546 20.0502 5.21375 20.9274C6.69852 21.6489 8.21157 20.6868 8.21157 19.0174C8.21157 17.6167 7.05204 16.6688 5.68039 16.9659Z" fill="url(#paint3_linear_226_361)"/>
<path d="M22.1262 30.9444C21.2919 31.3264 20.8818 31.9772 20.8818 32.8827C20.8818 33.8165 21.3626 34.5098 22.2818 34.8635C23.0454 35.1464 23.7665 35.0049 24.4594 34.4107C25.5765 33.4769 25.223 31.4538 23.8231 30.8737C23.2009 30.619 22.8191 30.6332 22.1262 30.9444Z" fill="url(#paint4_linear_226_361)"/>
<path d="M47.0385 19.8328L47.0961 24.024H48.0574H49.0187L49.0764 21.8515C49.0956 20.6787 49.1917 19.6982 49.2686 19.6982C49.3455 19.6982 49.9607 20.6403 50.6336 21.7938C51.2873 22.9474 51.9602 23.9471 52.1332 24.0048C52.287 24.0624 52.7484 24.1201 53.1714 24.1201C53.7866 24.1201 53.9404 24.0432 54.0173 23.6779C54.075 23.4472 54.0942 21.5631 54.075 19.506L54.0173 15.757L53.1906 15.6993C51.8833 15.6032 51.7679 15.8147 51.8256 18.0064C51.8641 19.0254 51.8256 19.929 51.7679 19.9866C51.7103 20.0635 51.1719 19.2561 50.5759 18.2179C49.9992 17.1797 49.4224 16.2184 49.3263 16.0646C49.2302 15.9108 48.7111 15.757 48.0766 15.7186L47 15.6417L47.0385 19.8328Z" fill="#4817AB"/>
<path d="M58.4392 15.8915C58.3815 16.0453 58.3623 17.9294 58.3815 20.0827L58.4392 24.0239H61.2269H64.0146L64.0722 23.1972C64.1107 22.6397 64.053 22.3898 63.88 22.3705C63.7454 22.3705 62.9379 22.3513 62.092 22.3321L60.554 22.2936L60.4963 21.4669L60.4386 20.6595H61.9767H63.5339V19.7943V18.9292H61.9767H60.4386L60.4963 18.1986L60.554 17.4872L62.2843 17.468H64.0146V16.6029V15.7569L61.2653 15.6993C59.1505 15.6608 58.4968 15.6993 58.4392 15.8915Z" fill="#4817AB"/>
<path d="M68.1096 15.7763C68.0135 15.8532 67.9558 17.7758 67.9558 20.0251V24.1394L68.9748 24.0817L69.9745 24.0241L70.0706 22.6783L70.1667 21.3325L71.5318 21.2171C73.7042 21.0633 74.6463 20.0828 74.4348 18.2372C74.3387 17.2951 73.8196 16.603 72.8583 16.1031C72.2431 15.7763 68.3595 15.5071 68.1096 15.7763ZM72.1278 17.8911C72.7814 18.7947 72.0316 19.7752 70.8012 19.6599C70.2052 19.6022 70.1667 19.5637 70.1091 18.7563C70.0129 17.4874 70.1283 17.3143 71.0703 17.4489C71.5125 17.5066 71.9932 17.7181 72.1278 17.8911Z" fill="#4817AB"/>
<path d="M78.2416 15.8147C78.184 15.8724 78.1455 16.2377 78.1455 16.6414V17.372L79.3567 17.4297L80.5487 17.4874L80.6064 20.8134L80.6448 24.1394L81.6638 24.0817L82.6635 24.0241L82.7596 20.7557L82.8558 17.4874L84.067 17.4297L85.2782 17.372L85.2205 16.5645L85.1628 15.7571L81.7599 15.7378C79.895 15.7186 78.2993 15.7571 78.2416 15.8147Z" fill="#4817AB"/>
<path d="M89.2386 15.7762C89.1617 15.8531 89.104 17.2758 89.104 18.91C89.104 21.467 89.1617 22.0245 89.4693 22.5821C89.9692 23.5434 91.065 24.1201 92.3723 24.1201C93.6605 24.1201 94.6217 23.6779 95.2177 22.7936C95.6215 22.1591 95.6407 21.9861 95.6022 18.9485L95.5446 15.757H94.5833H93.622L93.5259 18.8908C93.4297 22.2552 93.3721 22.3898 92.3723 22.3898C91.3726 22.3898 91.3149 22.2552 91.2188 18.8908L91.1227 15.757L90.2575 15.6993C89.7769 15.6609 89.3155 15.6993 89.2386 15.7762Z" fill="#4817AB"/>
<path d="M99.9469 15.9108C99.9084 16.0453 99.8892 17.9294 99.9084 20.0827L99.9661 24.0239H100.927H101.889L101.985 21.7169L102.081 19.4098L102.465 20.0442C102.677 20.3903 103.292 21.4285 103.811 22.3513L104.792 24.0239H105.83H106.887L106.945 20.1019C106.983 17.3142 106.926 16.103 106.772 15.9108C106.618 15.7377 106.234 15.6608 105.657 15.6993L104.772 15.7569V17.9294C104.772 19.1022 104.715 20.0827 104.638 20.0827C104.561 20.0827 104.003 19.2175 103.407 18.1409C102.811 17.0835 102.196 16.0838 102.042 15.93C101.696 15.5839 100.081 15.5647 99.9469 15.9108Z" fill="#4817AB"/>
<path d="M111.213 19.8906V24.1394L114.059 24.0817L116.885 24.0241L116.942 23.2166L117 22.4091L115.212 22.3514L113.424 22.2938L113.366 21.4863L113.309 20.6788L114.808 20.6211L116.308 20.5635L116.366 19.7368L116.423 18.9293H114.866H113.309L113.366 18.1987L113.424 17.4874L115.212 17.4297L117 17.372L116.942 16.5645L116.885 15.7571L114.059 15.6994L111.213 15.6417V19.8906Z" fill="#4817AB"/>
</g>
<defs>
<filter id="filter0_d_226_361" x="0" y="0" width="121" height="43.0039" filterUnits="userSpaceOnUse" color-interpolation-filters="sRGB">
<feFlood flood-opacity="0" result="BackgroundImageFix"/>
<feColorMatrix in="SourceAlpha" type="matrix" values="0 0 0 0 0 0 0 0 0 0 0 0 0 0 0 0 0 0 127 0" result="hardAlpha"/>
<feOffset dy="4"/>
<feGaussianBlur stdDeviation="2"/>
<feComposite in2="hardAlpha" operator="out"/>
<feColorMatrix type="matrix" values="0 0 0 0 0 0 0 0 0 0 0 0 0 0 0 0 0 0 0.25 0"/>
<feBlend mode="normal" in2="BackgroundImageFix" result="effect1_dropShadow_226_361"/>
<feBlend mode="normal" in="SourceGraphic" in2="effect1_dropShadow_226_361" result="shape"/>
</filter>
<linearGradient id="paint0_linear_226_361" x1="19.9667" y1="4.76837e-07" x2="19.9667" y2="4.30371" gradientUnits="userSpaceOnUse">
<stop stop-color="#4817AB"/>
<stop offset="1" stop-color="#4817AB"/>
</linearGradient>
<linearGradient id="paint1_linear_226_361" x1="21.3966" y1="0.833363" x2="21.3966" y2="34.1936" gradientUnits="userSpaceOnUse">
<stop stop-color="#4817AB"/>
<stop offset="1" stop-color="#4817AB"/>
</linearGradient>
<linearGradient id="paint2_linear_226_361" x1="36.8472" y1="13.8393" x2="36.8472" y2="18.1404" gradientUnits="userSpaceOnUse">
<stop stop-color="#4817AB"/>
<stop offset="1" stop-color="#4817AB"/>
</linearGradient>
<linearGradient id="paint3_linear_226_361" x1="6.10579" y1="16.9113" x2="6.10579" y2="21.1699" gradientUnits="userSpaceOnUse">
<stop stop-color="#4817AB"/>
<stop offset="1" stop-color="#4817AB"/>
</linearGradient>
<linearGradient id="paint4_linear_226_361" x1="23.0015" y1="30.6956" x2="23.0015" y2="35.0039" gradientUnits="userSpaceOnUse">
<stop stop-color="#4817AB"/>
<stop offset="1" stop-color="#4817AB"/>
</linearGradient>
</defs>
</svg>
