<svg width="72" height="72" viewBox="0 0 72 72" fill="none" xmlns="http://www.w3.org/2000/svg">
<path d="M21.6 48.6001L36 57.6001L50.4001 48.6001V18H21.6V48.6001ZM16.2 36C16.2 34.0905 15.4415 32.2591 14.0912 30.9089C12.741 29.5586 10.9096 28.8001 9.00005 28.8001C7.09049 28.8001 5.25914 29.5586 3.90888 30.9089C2.55862 32.2591 1.80005 34.0905 1.80005 36C1.80005 37.9096 2.55862 39.741 3.90888 41.0912C5.25914 42.4415 7.09049 43.2001 9.00005 43.2001C10.9096 43.2001 12.741 42.4415 14.0912 41.0912C15.4415 39.741 16.2 37.9096 16.2 36ZM63 28.8001C61.0905 28.8001 59.2591 29.5586 57.9089 30.9089C56.5586 32.2591 55.8001 34.0905 55.8001 36C55.8001 37.9096 56.5586 39.741 57.9089 41.0912C59.2591 42.4415 61.0905 43.2001 63 43.2001C64.9096 43.2001 66.741 42.4415 68.0912 41.0912C69.4415 39.741 70.2001 37.9096 70.2001 36C70.2001 34.0905 69.4415 32.2591 68.0912 30.9089C66.741 29.5586 64.9096 28.8001 63 28.8001ZM16.146 22.3165C18.3648 19.1011 21.3303 16.4718 24.7883 14.6541C28.2462 12.8365 32.0935 11.8845 36 11.88C39.8464 11.8893 43.635 12.8161 47.0511 14.5837C50.4673 16.3513 53.4123 18.9085 55.6417 22.0429C56.4169 23.1318 57.593 23.8681 58.9112 24.0899C60.2294 24.3117 61.5817 24.0007 62.6707 23.2254C63.7596 22.4502 64.4959 21.2741 64.7177 19.9559C64.9395 18.6377 64.6285 17.2854 63.8532 16.1964C60.6912 11.7535 56.5143 8.12948 51.6699 5.62554C46.8254 3.12161 41.4533 1.81011 36 1.80005C30.4632 1.80412 25.01 3.15159 20.1085 5.72681C15.207 8.30204 11.0035 12.0281 7.85885 16.5852C7.10014 17.6852 6.80861 19.0412 7.04819 20.3558C7.28776 21.6705 8.03888 22.8364 9.13685 23.598C10.2367 24.3562 11.5924 24.6471 12.9065 24.4068C14.2206 24.1665 15.3856 23.4148 16.146 22.3165ZM55.6417 49.9572C53.4128 53.0921 50.4678 55.6496 47.0515 57.4172C43.6353 59.1848 39.8465 60.1114 36 60.1201C32.0935 60.1156 28.2462 59.1637 24.7883 57.346C21.3303 55.5283 18.3648 52.899 16.146 49.6837C15.3695 48.6263 14.2112 47.9134 12.9174 47.6965C11.6236 47.4795 10.2962 47.7756 9.21716 48.5218C8.13817 49.268 7.39265 50.4055 7.13901 51.6926C6.88538 52.9798 7.14361 54.3151 7.85885 55.4148C11.0035 59.972 15.207 63.6981 20.1085 66.2733C25.01 68.8485 30.4632 70.196 36 70.2001C41.4533 70.19 46.8254 68.8785 51.6699 66.3746C56.5143 63.8706 60.6912 60.2466 63.8532 55.8037C64.5701 54.713 64.8363 53.3869 64.5959 52.1041C64.3554 50.8213 63.6271 49.6816 62.5638 48.9247C61.5006 48.1677 60.1854 47.8523 58.8945 48.0449C57.6036 48.2375 56.4377 48.9229 55.6417 49.9572Z" fill="black"/>
</svg>
