<svg width="100" height="100" viewBox="0 0 100 100" fill="none" xmlns="http://www.w3.org/2000/svg">
<path fill-rule="evenodd" clip-rule="evenodd" d="M20.8206 50C26.6519 59.1745 35.8268 67.6 50 67.6C64.173 67.6 73.3485 59.1745 79.1795 50C73.3485 40.8255 64.173 32.4 50 32.4C35.8268 32.4 26.6519 40.8255 20.8206 50ZM15.9421 48.7652C22.159 38.4037 32.8072 27.6 50 27.6C67.193 27.6 77.841 38.4037 84.058 48.7652L84.799 50L84.058 51.235C77.841 61.5965 67.193 72.4 50 72.4C32.8072 72.4 22.159 61.5965 15.9421 51.235L15.2012 50L15.9421 48.7652Z" fill="white"/>
<path d="M50.0002 62.75C57.0419 62.75 62.7502 57.0416 62.7502 50C62.7502 42.9584 57.0419 37.25 50.0002 37.25C42.9586 37.25 37.2502 42.9584 37.2502 50C37.2502 57.0416 42.9586 62.75 50.0002 62.75Z" fill="white"/>
</svg>
